<svg xmlns="http://www.w3.org/2000/svg" width="520" height="520" viewBox="0 0 520 520">
  <defs>
    <linearGradient id="dnaBg" x1="0%" y1="0%" x2="100%" y2="100%">
      <stop offset="0%" stop-color="#161b22"/>
      <stop offset="100%" stop-color="#0d1117"/>
    </linearGradient>
    <radialGradient id="dnaGlow" cx="50%" cy="46%" r="40%">
      <stop offset="0%" stop-color="#3572A5" stop-opacity="0.15"/>
      <stop offset="100%" stop-color="#3572A5" stop-opacity="0"/>
    </radialGradient>
    <filter id="dnaShadow">
      <feDropShadow dx="0" dy="2" stdDeviation="6" flood-color="#000" flood-opacity="0.3"/>
    </filter>
    <filter id="dnaBlur">
      <feGaussianBlur stdDeviation="3" result="blur"/>
      <feMerge><feMergeNode in="blur"/><feMergeNode in="SourceGraphic"/></feMerge>
    </filter>
    
    <radialGradient id="ringGrad0" cx="50%" cy="50%" r="50%">
      <stop offset="60%" stop-color="#3572A5" stop-opacity="0.6"/>
      <stop offset="100%" stop-color="#3572A5" stop-opacity="0.1"/>
    </radialGradient>
    <radialGradient id="ringGrad1" cx="50%" cy="50%" r="50%">
      <stop offset="60%" stop-color="#58a6ff" stop-opacity="0.6"/>
      <stop offset="100%" stop-color="#58a6ff" stop-opacity="0.1"/>
    </radialGradient>
    <radialGradient id="ringGrad2" cx="50%" cy="50%" r="50%">
      <stop offset="60%" stop-color="#3178c6" stop-opacity="0.6"/>
      <stop offset="100%" stop-color="#3178c6" stop-opacity="0.1"/>
    </radialGradient>
    <radialGradient id="ringGrad3" cx="50%" cy="50%" r="50%">
      <stop offset="60%" stop-color="#e34c26" stop-opacity="0.6"/>
      <stop offset="100%" stop-color="#e34c26" stop-opacity="0.1"/>
    </radialGradient>
    <radialGradient id="ringGrad4" cx="50%" cy="50%" r="50%">
      <stop offset="60%" stop-color="#f1e05a" stop-opacity="0.6"/>
      <stop offset="100%" stop-color="#f1e05a" stop-opacity="0.1"/>
    </radialGradient>
    <radialGradient id="ringGrad5" cx="50%" cy="50%" r="50%">
      <stop offset="60%" stop-color="#563d7c" stop-opacity="0.6"/>
      <stop offset="100%" stop-color="#563d7c" stop-opacity="0.1"/>
    </radialGradient>
  </defs>

  <style>
    .dna-text { font-family: 'Segoe UI', 'Noto Sans KR', sans-serif; }
    .dna-title { font-size: 14px; font-weight: 700; letter-spacing: 2px; }
    .dna-username { font-size: 12px; font-weight: 600; }
    .dna-label { font-size: 10px; font-weight: 500; }
    .dna-value { font-size: 10px; font-weight: 700; }
    .dna-small { font-size: 9px; opacity: 0.7; }
    .dna-keyword { font-size: 9px; font-weight: 600; }

    @keyframes dna-rotate {
      from { transform: rotate(0deg); }
      to { transform: rotate(360deg); }
    }
    @keyframes dna-pulse {
      0%, 100% { opacity: 0.6; }
      50% { opacity: 1; }
    }
    @keyframes dna-wave {
      0%, 100% { transform: scaleY(1); }
      50% { transform: scaleY(1.2); }
    }
    .dna-ring-rotate { animation: dna-rotate 60s linear infinite; transform-origin: 260px 240px; }
    .dna-ring-rotate-reverse { animation: dna-rotate 80s linear infinite reverse; transform-origin: 260px 240px; }
    .dna-pulse { animation: dna-pulse 3s ease-in-out infinite; }
  </style>

  <!-- 배경 -->
  <rect width="520" height="520" rx="16" fill="url(#dnaBg)"/>
  <rect width="520" height="520" rx="16" fill="url(#dnaGlow)"/>

  <!-- 제목 영역 -->
  <text x="260" y="28" text-anchor="middle" class="dna-text dna-title" fill="#3572A5">
    🧬 CODE DNA</text>
  <text x="260" y="46" text-anchor="middle" class="dna-text dna-username" fill="#e6edf3">
    Sangyeonglee353</text>

  <!-- 동심원 링 (7개 요일) -->
  <g class="dna-ring-rotate">
    
    <circle cx="260" cy="240" r="57.14285714285714" fill="none"
            stroke="#3572A5" stroke-width="2" opacity="0.3"
            stroke-dasharray="4 8"/>
    <text x="260" y="168.85714285714286" text-anchor="middle" dominant-baseline="middle"
          class="dna-text dna-small" fill="#3572A5" font-size="8">일</text>
    <circle cx="260" cy="240" r="74.28571428571428" fill="none"
            stroke="#3572A5" stroke-width="2" opacity="0.3"
            stroke-dasharray="4 8"/>
    <text x="329.0245508807489" y="184.95475749304325" text-anchor="middle" dominant-baseline="middle"
          class="dna-text dna-small" fill="#3572A5" font-size="8">월</text>
    <circle cx="260" cy="240" r="91.42857142857143" fill="none"
            stroke="#58a6ff" stroke-width="2" opacity="0.3"
            stroke-dasharray="4 8"/>
    <text x="362.7852570271694" y="263.46006417996574" text-anchor="middle" dominant-baseline="middle"
          class="dna-text dna-small" fill="#58a6ff" font-size="8">화</text>
    <circle cx="260" cy="240" r="108.57142857142857" fill="none"
            stroke="#3178c6" stroke-width="2" opacity="0.3"
            stroke-dasharray="4 8"/>
    <text x="313.18174973755214" y="350.43304123718224" text-anchor="middle" dominant-baseline="middle"
          class="dna-text dna-small" fill="#3178c6" font-size="8">수</text>
    <circle cx="260" cy="240" r="125.71428571428571" fill="none"
            stroke="#e34c26" stroke-width="2" opacity="0.3"
            stroke-dasharray="4 8"/>
    <text x="199.3802433061469" y="365.87822182979517" text-anchor="middle" dominant-baseline="middle"
          class="dna-text dna-small" fill="#e34c26" font-size="8">목</text>
    <circle cx="260" cy="240" r="142.85714285714286" fill="none"
            stroke="#f1e05a" stroke-width="2" opacity="0.3"
            stroke-dasharray="4 8"/>
    <text x="107.07559320347966" y="274.90399792629046" text-anchor="middle" dominant-baseline="middle"
          class="dna-text dna-small" fill="#f1e05a" font-size="8">금</text>
    <circle cx="260" cy="240" r="160" fill="none"
            stroke="#563d7c" stroke-width="2" opacity="0.3"
            stroke-dasharray="4 8"/>
    <text x="123.96132205056279" y="131.51277447658038" text-anchor="middle" dominant-baseline="middle"
          class="dna-text dna-small" fill="#563d7c" font-size="8">토</text>
  </g>

  <!-- 나선 파형 오버레이 -->
  <g class="dna-ring-rotate-reverse">
    <path d="M 357.2 240.0 C 355.8,241.8 356.4,243.4 356.0,245.0 C 355.6,246.7 355.2,248.3 354.8,250.0 C 354.5,251.6 354.1,253.2 353.8,254.9 C 353.5,256.5 353.3,258.1 353.0,259.8 C 352.8,261.4 352.6,263.1 352.4,264.8 C 352.2,266.4 352.0,268.1 351.8,269.8 C 351.7,271.6 351.5,273.3 351.3,275.0 C 351.1,276.8 350.9,278.6 350.6,280.4 C 350.4,282.1 350.1,283.9 349.7,285.7 C 349.4,287.5 349.0,289.3 348.5,291.1 C 348.0,292.8 347.4,294.6 346.7,296.3 C 346.0,298.0 345.3,299.7 344.4,301.3 C 343.5,302.9 342.6,304.5 341.5,306.0 C 340.4,307.5 339.3,308.9 338.0,310.2 C 336.8,311.6 335.4,312.8 334.0,314.0 C 332.6,315.2 331.1,316.2 329.5,317.2 C 328.0,318.2 326.4,319.1 324.7,319.9 C 323.1,320.7 321.3,321.4 319.6,322.1 C 317.9,322.7 316.2,323.3 314.5,323.9 C 312.7,324.4 311.0,324.9 309.3,325.3 C 307.5,325.8 305.8,326.2 304.1,326.6 C 302.4,327.0 300.7,327.4 299.1,327.8 C 297.4,328.2 295.8,328.6 294.2,329.0 C 292.5,329.4 291.0,329.9 289.4,330.4 C 287.8,330.8 286.2,331.4 284.6,331.9 C 283.0,332.4 281.5,333.0 279.9,333.6 C 278.3,334.2 276.7,334.8 275.1,335.4 C 273.5,336.1 271.9,336.7 270.2,337.3 C 268.6,338.0 266.9,338.6 265.2,339.2 C 263.5,339.7 261.8,340.3 260.0,340.8 C 258.2,341.3 256.5,341.7 254.7,342.1 C 252.8,342.4 251.0,342.7 249.2,342.9 C 247.4,343.0 245.5,343.1 243.7,343.1 C 241.8,343.0 240.0,342.9 238.2,342.6 C 236.4,342.3 234.6,341.9 232.8,341.4 C 231.1,340.9 229.3,340.2 227.7,339.5 C 226.0,338.8 224.4,337.9 222.8,337.0 C 221.2,336.0 219.7,335.0 218.2,333.9 C 216.7,332.8 215.3,331.6 214.0,330.3 C 212.6,329.1 211.3,327.8 210.0,326.5 C 208.8,325.2 207.6,323.9 206.4,322.6 C 205.2,321.2 204.1,319.9 202.9,318.6 C 201.8,317.2 200.7,315.9 199.6,314.6 C 198.5,313.3 197.4,312.1 196.2,310.8 C 195.1,309.6 194.0,308.4 192.8,307.2 C 191.7,306.0 190.5,304.8 189.3,303.7 C 188.1,302.5 186.9,301.4 185.6,300.2 C 184.3,299.1 183.1,298.0 181.8,296.8 C 180.5,295.7 179.2,294.5 177.9,293.3 C 176.5,292.2 175.2,291.0 173.9,289.7 C 172.6,288.4 171.3,287.1 170.1,285.8 C 168.9,284.5 167.7,283.1 166.5,281.6 C 165.4,280.2 164.3,278.7 163.4,277.1 C 162.4,275.5 161.5,273.9 160.7,272.3 C 159.9,270.6 159.2,268.9 158.7,267.2 C 158.1,265.4 157.7,263.6 157.3,261.8 C 157.0,260.0 156.8,258.2 156.7,256.4 C 156.6,254.5 156.6,252.7 156.8,250.9 C 156.9,249.0 157.1,247.2 157.5,245.4 C 157.8,243.6 158.2,241.8 158.7,240.0 C 159.2,238.2 159.7,236.5 160.3,234.8 C 160.9,233.1 161.5,231.4 162.2,229.7 C 162.8,228.1 163.5,226.4 164.2,224.8 C 164.8,223.2 165.5,221.6 166.1,220.0 C 166.8,218.5 167.4,216.9 168.0,215.3 C 168.6,213.8 169.1,212.2 169.6,210.6 C 170.2,209.1 170.7,207.5 171.1,205.9 C 171.6,204.3 172.1,202.7 172.5,201.0 C 172.9,199.4 173.4,197.7 173.8,196.1 C 174.2,194.4 174.6,192.7 175.1,191.0 C 175.6,189.3 176.0,187.5 176.6,185.8 C 177.1,184.1 177.7,182.4 178.3,180.7 C 179.0,178.9 179.7,177.2 180.4,175.6 C 181.2,173.9 182.1,172.3 183.0,170.7 C 184.0,169.1 185.0,167.6 186.1,166.1 C 187.3,164.7 188.5,163.3 189.8,162.0 C 191.1,160.7 192.5,159.5 193.9,158.4 C 195.4,157.3 197.0,156.3 198.5,155.4 C 200.1,154.5 201.8,153.7 203.5,153.0 C 205.2,152.3 206.9,151.7 208.7,151.1 C 210.5,150.6 212.3,150.2 214.0,149.8 C 215.8,149.4 217.6,149.1 219.4,148.9 C 221.2,148.6 223.0,148.4 224.8,148.3 C 226.5,148.1 228.3,147.9 230.0,147.8 C 231.8,147.6 233.5,147.5 235.2,147.3 C 236.9,147.2 238.5,147.0 240.2,146.8 C 241.9,146.6 243.5,146.4 245.1,146.2 C 246.8,145.9 248.4,145.6 250.0,145.3 C 251.7,145.0 253.3,144.7 255.0,144.3 C 256.6,144.0 258.3,143.6 260.0,143.2 C 261.7,142.8 263.4,142.4 265.1,142.0 C 266.9,141.7 268.6,141.3 270.4,141.0 C 272.2,140.7 274.0,140.4 275.8,140.2 C 277.6,140.0 279.5,139.8 281.3,139.8 C 283.1,139.7 285.0,139.8 286.8,139.9 C 288.7,140.0 290.5,140.3 292.3,140.6 C 294.1,141.0 295.9,141.5 297.6,142.0 C 299.3,142.6 301.0,143.3 302.7,144.1 C 304.3,144.9 305.9,145.9 307.5,146.9 C 309.0,147.9 310.4,149.0 311.8,150.2 C 313.2,151.4 314.6,152.7 315.8,154.0 C 317.1,155.3 318.3,156.8 319.4,158.2 C 320.6,159.6 321.7,161.1 322.7,162.6 C 323.8,164.0 324.7,165.5 325.7,167.0 C 326.7,168.5 327.6,170.0 328.5,171.5 C 329.4,173.0 330.3,174.4 331.3,175.8 C 332.2,177.3 333.1,178.7 334.0,180.1 C 334.9,181.5 335.9,182.8 336.9,184.2 C 337.8,185.5 338.8,186.8 339.9,188.1 C 340.9,189.5 341.9,190.8 343.0,192.1 C 344.1,193.4 345.2,194.7 346.3,196.0 C 347.4,197.3 348.6,198.7 349.7,200.1 C 350.8,201.4 351.9,202.8 353.0,204.3 C 354.1,205.7 355.2,207.2 356.2,208.7 C 357.2,210.3 358.2,211.9 359.0,213.5 C 359.9,215.1 360.7,216.7 361.4,218.4 C 362.1,220.1 362.7,221.9 363.2,223.6 C 363.7,225.4 364.1,227.2 364.4,229.0 C 364.6,230.8 366.0,232.7 364.8,234.5 C 363.6,236.3 358.7,238.2 357.2,240.0 Z" fill="none" stroke="#58a6ff" stroke-width="1.5"
          opacity="0.6" filter="url(#dnaBlur)"/><path d="M 361.6 240.0 C 361.7,241.7 360.9,243.5 360.5,245.3 C 360.1,247.0 359.6,248.7 359.1,250.4 C 358.6,252.1 358.1,253.8 357.5,255.4 C 357.0,257.1 356.4,258.7 355.7,260.3 C 355.1,262.0 354.5,263.6 353.8,265.1 C 353.2,266.7 352.5,268.3 351.8,269.8 C 351.2,271.4 350.5,272.9 349.8,274.5 C 349.1,276.0 348.4,277.5 347.7,279.0 C 347.0,280.6 346.3,282.1 345.6,283.6 C 344.9,285.1 344.2,286.7 343.5,288.2 C 342.7,289.7 342.0,291.2 341.2,292.8 C 340.5,294.3 339.7,295.8 338.9,297.3 C 338.1,298.9 337.3,300.4 336.4,301.9 C 335.6,303.4 334.7,304.9 333.8,306.4 C 332.9,307.9 331.9,309.4 330.9,310.9 C 329.9,312.3 328.8,313.8 327.7,315.2 C 326.6,316.6 325.4,318.0 324.2,319.3 C 323.0,320.6 321.7,321.9 320.4,323.2 C 319.1,324.4 317.7,325.6 316.3,326.7 C 314.9,327.8 313.4,328.9 311.9,329.9 C 310.4,330.9 308.8,331.8 307.2,332.7 C 305.6,333.5 304.0,334.3 302.3,335.0 C 300.6,335.6 298.9,336.3 297.2,336.8 C 295.4,337.3 293.7,337.8 291.9,338.1 C 290.1,338.5 288.3,338.8 286.5,339.0 C 284.7,339.3 282.9,339.4 281.1,339.5 C 279.4,339.6 277.6,339.6 275.8,339.6 C 274.0,339.5 272.2,339.4 270.4,339.3 C 268.7,339.2 266.9,339.0 265.2,338.8 C 263.4,338.6 261.7,338.3 260.0,338.0 C 258.3,337.7 256.6,337.4 254.9,337.1 C 253.2,336.8 251.6,336.5 249.9,336.1 C 248.2,335.8 246.6,335.4 244.9,335.0 C 243.3,334.7 241.7,334.3 240.0,333.9 C 238.4,333.5 236.8,333.2 235.1,332.8 C 233.5,332.4 231.9,332.0 230.2,331.6 C 228.6,331.2 227.0,330.8 225.3,330.3 C 223.7,329.9 222.0,329.5 220.4,329.0 C 218.7,328.5 217.1,328.0 215.4,327.5 C 213.8,327.0 212.1,326.4 210.4,325.8 C 208.8,325.2 207.1,324.6 205.5,323.9 C 203.9,323.2 202.2,322.5 200.6,321.7 C 199.0,320.9 197.4,320.1 195.9,319.2 C 194.3,318.3 192.8,317.3 191.3,316.3 C 189.8,315.3 188.3,314.2 186.9,313.1 C 185.5,311.9 184.2,310.7 182.9,309.4 C 181.6,308.2 180.4,306.8 179.2,305.4 C 178.0,304.0 176.9,302.6 175.9,301.1 C 174.9,299.6 173.9,298.1 173.0,296.5 C 172.1,294.9 171.3,293.3 170.5,291.6 C 169.8,290.0 169.1,288.3 168.5,286.6 C 167.9,284.9 167.4,283.2 166.9,281.4 C 166.5,279.7 166.1,277.9 165.7,276.2 C 165.4,274.4 165.1,272.7 164.9,270.9 C 164.6,269.2 164.5,267.4 164.3,265.6 C 164.2,263.9 164.1,262.1 164.0,260.4 C 163.9,258.7 163.8,257.0 163.8,255.2 C 163.8,253.5 163.8,251.8 163.8,250.1 C 163.8,248.4 163.8,246.7 163.9,245.0 C 163.9,243.4 163.9,241.7 164.0,240.0 C 164.0,238.3 164.1,236.7 164.1,235.0 C 164.2,233.3 164.2,231.6 164.3,229.9 C 164.4,228.3 164.4,226.6 164.5,224.9 C 164.6,223.2 164.7,221.5 164.8,219.8 C 165.0,218.1 165.1,216.3 165.3,214.6 C 165.5,212.9 165.7,211.2 165.9,209.4 C 166.1,207.7 166.4,205.9 166.7,204.2 C 167.1,202.5 167.4,200.7 167.9,199.0 C 168.3,197.3 168.8,195.5 169.3,193.8 C 169.9,192.1 170.5,190.4 171.2,188.7 C 171.9,187.1 172.6,185.4 173.4,183.8 C 174.3,182.2 175.2,180.6 176.1,179.1 C 177.1,177.5 178.1,176.0 179.2,174.6 C 180.3,173.1 181.5,171.7 182.7,170.4 C 184.0,169.1 185.3,167.8 186.6,166.6 C 188.0,165.4 189.4,164.2 190.8,163.2 C 192.3,162.1 193.8,161.1 195.3,160.1 C 196.9,159.2 198.4,158.3 200.0,157.5 C 201.6,156.6 203.3,155.9 204.9,155.2 C 206.6,154.5 208.2,153.8 209.9,153.2 C 211.6,152.6 213.3,152.1 214.9,151.6 C 216.6,151.1 218.3,150.6 220.0,150.2 C 221.7,149.7 223.4,149.3 225.1,149.0 C 226.7,148.6 228.4,148.2 230.1,147.9 C 231.7,147.6 233.4,147.2 235.1,146.9 C 236.7,146.6 238.4,146.3 240.0,146.0 C 241.7,145.7 243.3,145.5 245.0,145.2 C 246.6,144.9 248.3,144.6 249.9,144.3 C 251.6,144.1 253.3,143.8 254.9,143.6 C 256.6,143.3 258.3,143.1 260.0,142.8 C 261.7,142.6 263.4,142.4 265.1,142.2 C 266.8,142.0 268.6,141.9 270.3,141.8 C 272.1,141.6 273.8,141.6 275.6,141.5 C 277.4,141.5 279.1,141.5 280.9,141.5 C 282.7,141.6 284.5,141.7 286.3,141.9 C 288.1,142.0 289.9,142.3 291.6,142.6 C 293.4,142.9 295.2,143.3 296.9,143.7 C 298.7,144.2 300.4,144.7 302.1,145.3 C 303.8,146.0 305.5,146.6 307.2,147.4 C 308.8,148.2 310.4,149.0 312.0,149.9 C 313.6,150.9 315.1,151.8 316.6,152.9 C 318.0,154.0 319.5,155.1 320.8,156.3 C 322.2,157.5 323.5,158.7 324.8,160.0 C 326.0,161.3 327.2,162.7 328.4,164.1 C 329.5,165.5 330.6,166.9 331.6,168.4 C 332.7,169.8 333.7,171.3 334.6,172.8 C 335.5,174.4 336.4,175.9 337.3,177.4 C 338.1,179.0 338.9,180.5 339.7,182.1 C 340.5,183.7 341.2,185.2 341.9,186.8 C 342.6,188.4 343.3,190.0 344.0,191.5 C 344.6,193.1 345.3,194.7 345.9,196.2 C 346.6,197.8 347.2,199.4 347.8,200.9 C 348.4,202.5 349.0,204.0 349.6,205.6 C 350.2,207.2 350.8,208.7 351.4,210.3 C 352.0,211.9 352.6,213.4 353.2,215.0 C 353.8,216.6 354.4,218.2 354.9,219.8 C 355.5,221.4 356.0,223.1 356.6,224.7 C 357.1,226.4 357.6,228.0 358.1,229.7 C 358.5,231.4 358.8,233.1 359.4,234.8 C 360.0,236.5 361.4,238.3 361.6,240.0 Z" fill="none" stroke="#3178c6" stroke-width="1"
          opacity="0.4" stroke-dasharray="4 3"/>
  </g>

  <!-- 중앙 코어 -->
  
  <!-- 코어 글로우 -->
  <circle cx="260" cy="240" r="37.814207650273225" fill="#3572A5" opacity="0.05" class="dna-pulse"/>
  <circle cx="260" cy="240" r="32.814207650273225" fill="#3572A5" opacity="0.1"/>

  <!-- 코어 -->
  <circle cx="260" cy="240" r="27.814207650273225" fill="#161b22"
          stroke="#3572A5" stroke-width="2" opacity="0.9"/>

  <!-- 코어 텍스트 -->
  <text x="260" y="236" text-anchor="middle" dominant-baseline="middle"
        class="dna-text" font-size="16" font-weight="700" fill="#3572A5">
    0</text>
  <text x="260" y="252" text-anchor="middle" dominant-baseline="middle"
        class="dna-text dna-small" fill="#8b949e" font-size="8">commits</text>

  <!-- 언어 색상 레전드 (좌측 하단) -->
  <text x="20" y="392" class="dna-text dna-label"
        fill="#8b949e" letter-spacing="1">LANGUAGES</text>
    <circle cx="25" cy="404" r="3" fill="#3572A5"/>
    <text x="34" y="408" class="dna-text" font-size="9" fill="#e6edf3">
      Python</text>
    <text x="120" y="408" class="dna-text dna-small" fill="#8b949e" font-size="8">
      27.4%</text>
    <circle cx="25" cy="420" r="3" fill="#8b949e"/>
    <text x="34" y="424" class="dna-text" font-size="9" fill="#e6edf3">
      Jupyter Notebook</text>
    <text x="120" y="424" class="dna-text dna-small" fill="#8b949e" font-size="8">
      26.2%</text>
    <circle cx="25" cy="436" r="3" fill="#3178c6"/>
    <text x="34" y="440" class="dna-text" font-size="9" fill="#e6edf3">
      TypeScript</text>
    <text x="120" y="440" class="dna-text dna-small" fill="#8b949e" font-size="8">
      19.4%</text>
    <circle cx="25" cy="452" r="3" fill="#e34c26"/>
    <text x="34" y="456" class="dna-text" font-size="9" fill="#e6edf3">
      HTML</text>
    <text x="120" y="456" class="dna-text dna-small" fill="#8b949e" font-size="8">
      10.8%</text>
    <circle cx="25" cy="468" r="3" fill="#f1e05a"/>
    <text x="34" y="472" class="dna-text" font-size="9" fill="#e6edf3">
      JavaScript</text>
    <text x="120" y="472" class="dna-text dna-small" fill="#8b949e" font-size="8">
      10.4%</text>
    <circle cx="25" cy="484" r="3" fill="#563d7c"/>
    <text x="34" y="488" class="dna-text" font-size="9" fill="#e6edf3">
      CSS</text>
    <text x="120" y="488" class="dna-text dna-small" fill="#8b949e" font-size="8">
      1.6%</text>

  <!-- 키워드 장식 -->
  

  <!-- 하단 정보 영역 -->
  
  <!-- 코딩 스타일 -->
  <text x="20" y="496" class="dna-text" font-size="10" fill="#3572A5">
    ⚖️ 균형형 개발자</text>

  <!-- 다양성 지수 -->
  <text x="260" y="496" text-anchor="middle" class="dna-text" font-size="9" fill="#8b949e">
    다양성: 0% · 밀도: 64%</text>

  <!-- 레포/언어 수 -->
  <text x="500" y="496" text-anchor="end" class="dna-text" font-size="9" fill="#8b949e">
    125 repos · 18 langs</text>

  <!-- 외곽 장식 테두리 -->
  <rect x="2" y="2" width="516" height="516" rx="15"
        fill="none" stroke="#3572A5" stroke-width="1" opacity="0.3"/>
</svg>